<svg width="1608" height="438" viewBox="0 0 1608 438" fill="none" xmlns="http://www.w3.org/2000/svg">
<g clip-path="url(#clip0_49_303)">
<path d="M726.83 259.463C726.83 246.866 723.88 236.949 718.246 229.713C712.077 222.208 703.224 216.312 691.153 211.755V211.487C709.394 201.839 718.515 187.902 718.515 169.676C718.515 152.523 710.735 138.854 698.932 130.545C687.129 122.237 672.107 117.948 656.012 117.948H575V313.335H657.353C691.689 313.335 726.83 299.13 726.83 259.463ZM678.813 175.841C678.813 184.149 675.058 190.314 668.62 193.262C662.182 196.21 655.744 197.282 647.696 197.282H614.433V155.203H650.379C664.06 155.203 678.813 159.759 678.813 175.841ZM687.397 254.103C687.397 262.411 683.642 268.576 677.472 271.524C671.302 274.472 664.864 275.812 656.817 275.812H614.433V232.393H655.475C676.936 232.393 687.397 239.629 687.397 254.103Z" fill="black"/>
<path d="M738.466 247.134C738.466 259.999 741.954 271.792 748.392 282.513C754.83 293.234 763.414 301.274 774.412 307.439C785.679 313.335 797.75 316.283 811.163 316.283C824.307 316.283 836.647 313.335 847.913 307.171C858.911 301.274 867.764 292.965 874.47 281.977C880.908 271.256 884.127 259.463 884.127 246.33C884.127 233.197 880.908 221.404 874.47 210.951C868.032 200.23 859.18 191.922 848.181 186.025C837.183 179.861 824.843 176.913 811.699 176.913C798.287 176.913 786.215 180.129 774.949 186.025C763.682 192.19 754.83 200.766 748.392 211.487C741.954 222.208 738.466 234.001 738.466 247.134ZM787.825 222.208C794.263 215.776 802.042 212.559 811.163 212.559C820.551 212.559 828.331 215.776 834.769 222.208C841.207 228.641 844.158 236.681 844.158 246.598C844.158 256.515 841.207 264.823 834.769 270.988C828.331 277.42 820.551 280.637 811.431 280.637C802.042 280.637 794.263 277.42 787.825 270.988C781.655 264.555 778.436 256.515 778.436 246.598C778.436 236.681 781.655 228.641 787.825 222.208Z" fill="black"/>
<path d="M970.575 313.335H1014.3L966.015 245.258L1012.96 180.129H970.039L945.36 217.652L921.485 180.129H877.492L924.168 246.33L876.151 313.335H919.339L945.091 274.204L970.575 313.335Z" fill="black"/>
<path d="M1087.04 379L1168.05 180.129H1127.81L1098.04 256.247L1064.77 180.129H1021.85L1077.92 299.13L1045.46 379H1087.04Z" fill="black"/>
<path d="M1305.23 313.335H1345.46V117.948H1305.23V195.138H1223.14V117.948H1182.9V313.335H1223.14V234.269H1305.23V313.335Z" fill="black"/>
<path d="M1565 289.749L1545.95 273.132C1558.29 255.979 1564.46 236.413 1564.46 214.972C1564.46 196.478 1559.9 179.593 1551.05 164.316C1542.2 149.039 1529.86 136.978 1514.3 128.133C1499.01 119.288 1482.11 115 1463.33 115C1449.65 115 1436.51 117.68 1423.9 122.773C1411.29 128.133 1400.29 135.102 1391.17 144.214C1382.05 153.059 1374.81 163.78 1369.44 176.377C1364.08 188.974 1361.4 202.107 1361.4 215.776C1361.4 229.713 1364.08 242.846 1369.44 255.175C1374.54 267.772 1381.78 278.224 1390.9 287.069C1399.76 295.914 1410.49 303.15 1423.09 308.243C1435.43 313.603 1448.58 316.015 1462.53 316.015C1483.18 316.015 1501.96 310.655 1519.13 299.13L1540.32 318.427L1565 289.749ZM1402.71 215.508C1402.71 198.622 1408.61 184.149 1420.41 172.088C1432.22 160.027 1446.43 153.863 1463.06 153.863C1474.06 153.863 1483.99 156.811 1493.38 162.172C1502.5 167.8 1510.01 175.305 1515.37 184.685C1520.74 194.066 1523.42 204.519 1523.42 215.508C1523.42 226.496 1520.74 236.681 1515.37 246.062L1482.11 215.776L1457.43 244.99L1488.28 271.792C1480.23 275.544 1471.65 277.42 1463.06 277.42C1430.34 278.492 1401.9 248.474 1402.71 215.508Z" fill="black"/>
</g>
<path d="M480.135 344.162C483.623 340.674 483.623 335.018 480.135 331.53C476.646 328.042 470.991 328.042 467.503 331.53L480.135 344.162ZM69.7842 104.083L76.1757 110.323H76.1757L69.7842 104.083ZM374.108 419.375H85.7629V437.239H374.108V419.375ZM72.365 405.977V119.682H54.501V405.977H72.365ZM467.503 331.53L383.582 415.451L396.214 428.083L480.135 344.162L467.503 331.53ZM76.1757 110.323L160.286 24.1609L147.503 11.6823L63.3927 97.8439L76.1757 110.323ZM85.7629 419.375C78.3634 419.375 72.365 413.377 72.365 405.977H54.501C54.501 423.243 68.4974 437.239 85.7629 437.239V419.375ZM374.108 437.239C382.399 437.239 390.351 433.946 396.214 428.083L383.582 415.451C381.069 417.964 377.661 419.375 374.108 419.375V437.239ZM72.365 119.682C72.365 116.184 73.7326 112.825 76.1757 110.323L63.3927 97.8439C57.6921 103.684 54.501 111.521 54.501 119.682H72.365Z" fill="black"/>
<path d="M460.316 333.327H171.814V351.191H460.316V333.327ZM158.416 319.93V31.4269H140.552V319.93H158.416ZM473.714 31.4269V319.93H491.578V31.4269H473.714ZM171.814 18.0289H460.316V0.164953H171.814V18.0289ZM491.578 31.4269C491.578 14.1614 477.582 0.164953 460.316 0.164953V18.0289C467.716 18.0289 473.714 24.0274 473.714 31.4269H491.578ZM171.814 333.327C164.414 333.327 158.416 327.329 158.416 319.93H140.552C140.552 337.195 154.548 351.191 171.814 351.191V333.327ZM460.316 351.191C477.582 351.191 491.578 337.195 491.578 319.93H473.714C473.714 327.329 467.716 333.327 460.316 333.327V351.191ZM158.416 31.4269C158.416 24.0274 164.414 18.0289 171.814 18.0289V0.164953C154.548 0.164953 140.552 14.1614 140.552 31.4269H158.416Z" fill="black"/>
<path d="M324.012 122.339L308.485 229.302" stroke="black" stroke-width="27.7003" stroke-linecap="round" stroke-linejoin="round"/>
<path d="M264.147 140.458L230.506 176.687L264.147 211.191" stroke="black" stroke-width="27.7003" stroke-linecap="round" stroke-linejoin="round"/>
<path d="M368.356 141.317L401.997 177.547L368.356 212.051" stroke="black" stroke-width="27.7003" stroke-linecap="round" stroke-linejoin="round"/>
<path d="M147.276 28.9537L62.3302 111.693C62.6979 194.8 63.4334 367.412 63.4334 393.006C63.4334 418.599 76.6716 427.204 83.2908 428.308H383.358L464.994 343.362H179.268C153.674 343.362 147.276 326.447 147.276 317.989V28.9537Z" fill="black" stroke="black" stroke-width="2.20637"/>
<defs>
<clipPath id="clip0_49_303">
<rect width="1033" height="247" fill="white" transform="translate(575 106)"/>
</clipPath>
</defs>
</svg>
