<svg width="284" height="72" viewBox="0 0 284 72" fill="none" xmlns="http://www.w3.org/2000/svg">
  <path d="M108.837 23.6786C103.431 27.0395 98.052 31.2207 92.7515 36.189C85.7473 42.7572 78.8492 50.7171 72.2515 59.8501C69.3553 63.8597 66.7786 67.7277 64.545 71.2701H76.0414C77.2856 69.4203 78.6063 67.5185 80.005 65.588C87.1093 55.7743 97.2761 43.7311 109.406 35.0328C109.606 33.6411 109.707 32.2326 109.707 30.8196C109.707 28.3552 109.406 25.9622 108.837 23.6786Z" fill="#ED1C24"/>
  <path d="M108.146 21.3365C107.075 18.1862 105.487 15.2865 103.487 12.7446C96.9935 16.3794 90.5221 21.2067 84.1662 27.1661C77.1609 33.7338 70.2623 41.6932 63.6651 50.8269C58.026 58.6322 53.5995 65.9042 50.5627 71.2706H61.7122C64.3292 66.9256 67.5912 61.8503 71.4179 56.565C79.9109 44.8329 92.7821 29.9148 108.146 21.3365Z" fill="#80CC28"/>
  <path d="M102.22 11.2418C99.7891 8.55252 96.8663 6.34607 93.5983 4.77402C87.436 8.33909 81.2981 12.9772 75.2628 18.6354C68.2575 25.2018 61.3592 33.1621 54.7619 42.2956C44.5828 56.3834 38.3564 68.7369 37.1154 71.2703H47.9349C50.7108 66.1201 55.729 57.4074 62.5146 48.0333C71.5497 35.5511 85.5417 19.4641 102.22 11.2418" fill="#00ADEF"/>
  <path d="M34.2778 69.7909C34.7163 68.894 35.8849 66.556 37.7173 63.2309H17.7119C12.7221 63.2309 8.66243 59.0417 8.66243 53.8928C8.66243 49.061 12.1709 45.066 16.8228 44.5997L21.1435 44.1663L20.2597 39.7803C20.0544 38.7562 19.9497 37.7021 19.9497 36.6493C19.9497 28.219 26.5957 21.3596 34.7653 21.3596C36.4136 21.3596 38.0327 21.6372 39.5789 22.1841L43.3471 23.5185L44.5541 19.6C46.5786 13.0332 52.4296 8.62118 59.114 8.62118C63.9819 8.62118 68.447 10.9332 71.3645 14.9637L72.614 16.6919C72.7836 16.5306 72.9531 16.3651 73.1241 16.2065C76.7213 12.8336 80.3769 9.79972 84.0589 7.12543C83.3381 7.05433 82.6094 7.01743 81.8714 7.01743C79.774 7.01743 77.7164 7.30454 75.725 7.87194C73.9562 5.9797 71.8852 4.38689 69.6249 3.19193C66.3973 1.48427 62.7629 0.581893 59.114 0.581893C54.1203 0.581893 49.3663 2.20205 45.3676 5.26874C42.4514 7.50552 40.1274 10.3576 38.5216 13.6416C37.2854 13.4283 36.0307 13.3203 34.7653 13.3203C22.3002 13.3203 12.159 23.7851 12.159 36.6493C12.159 36.9255 12.163 37.2017 12.1722 37.4778C9.55147 38.4199 7.17848 40.025 5.27187 42.1811C2.43382 45.3886 0.871704 49.5477 0.871704 53.8928C0.871704 63.4743 8.42659 71.2702 17.7119 71.2702H33.553L34.2778 69.7909" fill="#4F4C4C"/>
  <path d="M109.731 42.168C109.131 41.4933 108.488 40.8728 107.804 40.3095C105.66 42.0117 103.589 43.8113 101.602 45.6652C104.454 47.2415 106.351 50.3385 106.351 53.8934C106.351 59.0423 102.291 63.2314 97.3009 63.2314H85.7811C84.6189 64.738 83.5392 66.1873 82.551 67.5532C81.6767 68.7603 80.7995 70.006 79.9282 71.2706H97.3009C106.588 71.2706 114.141 63.4751 114.141 53.8934C114.141 49.5416 112.576 45.3773 109.731 42.168" fill="#4F4C4C"/>
  <path d="M148.634 40.3631L153.267 41.5331C152.296 45.3377 150.545 48.2428 148.014 50.2485C145.498 52.2383 142.418 53.2332 138.773 53.2332C135 53.2332 131.928 52.4691 129.556 50.941C127.2 49.3969 125.401 47.1683 124.16 44.2552C122.934 41.3421 122.321 38.2141 122.321 34.8712C122.321 31.2259 123.014 28.0502 124.399 25.344C125.799 22.622 127.781 20.5605 130.344 19.1597C132.923 17.7429 135.756 17.0346 138.845 17.0346C142.347 17.0346 145.292 17.926 147.679 19.7089C150.067 21.4917 151.731 23.9989 152.67 27.2304L148.109 28.3049C147.297 25.7579 146.119 23.9034 144.575 22.7413C143.031 21.5793 141.089 20.9983 138.749 20.9983C136.059 20.9983 133.806 21.643 131.992 22.9324C130.193 24.2218 128.927 25.9569 128.195 28.1377C127.463 30.3026 127.097 32.5392 127.097 34.8474C127.097 37.8241 127.527 40.4268 128.386 42.6554C129.262 44.8681 130.615 46.5236 132.445 47.622C134.276 48.7203 136.258 49.2695 138.391 49.2695C140.986 49.2695 143.182 48.5214 144.981 47.025C146.78 45.5287 147.998 43.308 148.634 40.3631ZM179.843 48.5054V52.6363H156.705C156.673 51.6016 156.84 50.6067 157.207 49.6516C157.796 48.0756 158.735 46.5236 160.024 44.9954C161.329 43.4672 163.208 41.7003 165.659 39.6945C169.464 36.5745 172.035 34.1072 173.372 32.2924C174.709 30.4618 175.378 28.7347 175.378 27.111C175.378 25.4077 174.765 23.975 173.539 22.813C172.329 21.635 170.745 21.046 168.787 21.046C166.718 21.046 165.062 21.6668 163.821 22.9085C162.579 24.1501 161.95 25.8693 161.934 28.0661L157.517 27.6124C157.819 24.3173 158.958 21.8101 160.931 20.0909C162.905 18.3558 165.556 17.4882 168.883 17.4882C172.242 17.4882 174.9 18.4195 176.858 20.2819C178.816 22.1444 179.795 24.4526 179.795 27.2065C179.795 28.6073 179.508 29.9843 178.935 31.3373C178.362 32.6904 177.407 34.1151 176.07 35.6115C174.749 37.1078 172.544 39.1613 169.456 41.7719C166.877 43.9368 165.222 45.4093 164.489 46.1893C163.757 46.9534 163.152 47.7254 162.675 48.5054H179.843ZM184.642 41.3899L189.012 41.0078C189.219 42.7589 189.696 44.1995 190.444 45.3297C191.208 46.444 192.386 47.3513 193.978 48.0518C195.57 48.7363 197.361 49.0785 199.351 49.0785C201.118 49.0785 202.678 48.8159 204.031 48.2905C205.384 47.7652 206.387 47.0489 207.039 46.1415C207.708 45.2183 208.042 44.2154 208.042 43.1329C208.042 42.0346 207.724 41.0795 207.087 40.2676C206.45 39.4399 205.4 38.7474 203.935 38.1903C202.996 37.8241 200.919 37.259 197.703 36.4949C194.488 35.7149 192.235 34.9827 190.946 34.2982C189.274 33.4227 188.025 32.3402 187.197 31.0508C186.385 29.7455 185.979 28.2889 185.979 26.6812C185.979 24.9142 186.481 23.2667 187.484 21.7385C188.486 20.1944 189.951 19.0244 191.877 18.2284C193.803 17.4325 195.944 17.0346 198.3 17.0346C200.895 17.0346 203.179 17.4564 205.153 18.3001C207.143 19.1278 208.671 20.3536 209.738 21.9773C210.804 23.6009 211.377 25.4395 211.457 27.493L207.016 27.8273C206.777 25.6146 205.965 23.9432 204.58 22.813C203.211 21.6828 201.181 21.1177 198.491 21.1177C195.69 21.1177 193.644 21.635 192.355 22.6697C191.081 23.6885 190.444 24.9222 190.444 26.3708C190.444 27.6283 190.898 28.663 191.805 29.4749C192.697 30.2867 195.021 31.1224 198.778 31.982C202.55 32.8257 205.137 33.5659 206.538 34.2027C208.576 35.1419 210.08 36.3357 211.051 37.7843C212.022 39.217 212.507 40.8725 212.507 42.7509C212.507 44.6134 211.974 46.3724 210.908 48.0279C209.841 49.6675 208.305 50.9489 206.299 51.8722C204.309 52.7796 202.065 53.2332 199.566 53.2332C196.398 53.2332 193.74 52.7716 191.591 51.8483C189.457 50.9251 187.778 49.5401 186.552 47.6936C185.342 45.8311 184.706 43.7299 184.642 41.3899ZM218.931 52.6363V17.6315H244.241V21.7624H223.563V32.4835H242.928V36.5904H223.563V48.5054H245.053V52.6363H218.931ZM276.428 40.3631L281.06 41.5331C280.089 45.3377 278.338 48.2428 275.807 50.2485C273.292 52.2383 270.212 53.2332 266.567 53.2332C262.794 53.2332 259.722 52.4691 257.35 50.941C254.994 49.3969 253.195 47.1683 251.953 44.2552C250.728 41.3421 250.115 38.2141 250.115 34.8712C250.115 31.2259 250.807 28.0502 252.192 25.344C253.593 22.622 255.575 20.5605 258.138 19.1597C260.717 17.7429 263.55 17.0346 266.638 17.0346C270.14 17.0346 273.085 17.926 275.473 19.7089C277.861 21.4917 279.524 23.9989 280.464 27.2304L275.903 28.3049C275.091 25.7579 273.913 23.9034 272.369 22.7413C270.825 21.5793 268.883 20.9983 266.543 20.9983C263.853 20.9983 261.6 21.643 259.785 22.9324C257.987 24.2218 256.721 25.9569 255.989 28.1377C255.257 30.3026 254.89 32.5392 254.89 34.8474C254.89 37.8241 255.32 40.4268 256.18 42.6554C257.055 44.8681 258.408 46.5236 260.239 47.622C262.07 48.7203 264.052 49.2695 266.185 49.2695C268.779 49.2695 270.976 48.5214 272.775 47.025C274.574 45.5287 275.791 43.308 276.428 40.3631Z" fill="#333333"/>
  </svg>
  