<?xml version="1.0" encoding="utf-8"?>
<svg viewBox="1142.515 312.304 3240.039 1592.883" height="2666.6667" width="3733.3333" id="svg2" version="1.1" xmlns="http://www.w3.org/2000/svg">
  <g transform="matrix(1.384243, 0, 0, -1.41874, -44.869762, 2786.329102)" id="g10" style="">
    <g transform="matrix(0.103032, 0, 0, 0.103734, -23.193855, -54.610901)" id="g12" style="">
      <g transform="scale(1.11127)" id="g14">
        <path id="path16" style="fill:#ed1c24;fill-opacity:1;fill-rule:nonzero;stroke:none" d="m 16240.9,11640.9 c -367.2,-221.2 -732.5,-496.4 -1092.5,-823.4 -475.7,-432.3 -944.2,-956.2 -1392.3,-1557.31 -196.7,-263.9 -371.7,-518.48 -523.4,-751.63 h 780.8 c 84.5,121.75 174.2,246.92 269.2,373.98 482.5,645.91 1173,1438.56 1996.8,2011.06 13.6,91.6 20.5,184.3 20.5,277.3 0,162.2 -20.5,319.7 -59.1,470"/>
      </g>
      <g transform="scale(1.10404)" id="g18">
        <path id="path20" style="fill:#80cc28;fill-opacity:1;fill-rule:nonzero;stroke:none" d="m 16300,11872.3 c -73.2,208.7 -181.8,400.8 -318.5,569.2 -443.9,-240.8 -886.3,-560.6 -1320.8,-955.4 -478.9,-435.1 -950.5,-962.4 -1401.5,-1567.49 -385.5,-517.09 -688.1,-998.85 -895.7,-1354.36 h 762.2 c 178.9,287.85 401.9,624.08 663.5,974.22 580.6,777.23 1460.5,1765.53 2510.8,2333.83"/>
      </g>
      <g transform="scale(1.0766)" id="g22">
        <path id="path24" style="fill:#00adef;fill-opacity:1;fill-rule:nonzero;stroke:none" d="m 16300,12860.7 c -170.4,182.7 -375.3,332.6 -604.4,439.4 -432,-242.2 -862.3,-557.3 -1285.4,-941.7 -491.1,-446.1 -974.7,-986.9 -1437.2,-1607.4 -713.6,-957.08 -1150.1,-1796.34 -1237.1,-1968.45 h 758.5 c 194.6,349.89 546.4,941.8 1022.1,1578.65 633.4,848 1614.3,1940.9 2783.5,2499.5"/>
      </g>
      <path id="path26" style="fill:#4f4c4c;fill-opacity:1;fill-rule:nonzero;stroke:none" d="m 12420.7,9563.5 c 33.1,65.6 121.3,236.6 259.6,479.8 h -1509.9 c -376.6,0 -683,306.4 -683,683 0,353.4 264.8,645.6 615.9,679.7 l 326.1,31.7 -66.7,320.8 c -15.5,74.9 -23.4,152 -23.4,229 0,616.6 501.6,1118.3 1118.2,1118.3 124.4,0 246.6,-20.3 363.3,-60.3 l 284.4,-97.6 91.1,286.6 c 152.8,480.3 594.4,803 1098.9,803 367.4,0 704.4,-169.1 924.6,-463.9 l 94.3,-126.4 c 12.8,11.8 25.6,23.9 38.5,35.5 271.5,246.7 547.4,468.6 825.3,664.2 -54.4,5.2 -109.4,7.9 -165.1,7.9 -158.3,0 -313.6,-21 -463.9,-62.5 -133.5,138.4 -289.8,254.9 -460.4,342.3 -243.6,124.9 -517.9,190.9 -793.3,190.9 -376.9,0 -735.7,-118.5 -1037.5,-342.8 -220.1,-163.6 -395.5,-372.2 -516.7,-612.4 -93.3,15.6 -188,23.5 -283.5,23.5 -940.8,0 -1706.2,-765.4 -1706.2,-1706.3 0,-20.2 0.3,-40.4 1,-60.6 -197.8,-68.9 -376.9,-186.3 -520.8,-344 -214.2,-234.6 -332.1,-538.8 -332.1,-856.6 0,-700.8 570.2,-1271 1271,-1271 H 12366 l 54.7,108.2"/>
      <g transform="scale(1.1318)" id="g28">
        <path id="path30" style="fill:#4f4c4c;fill-opacity:1;fill-rule:nonzero;stroke:none" d="m 16005.9,10234.9 c -40,43.6 -82.9,83.7 -128.5,120.1 -143,-110 -281.1,-226.3 -413.6,-346.1 190.2,-101.87 316.7,-302.01 316.7,-531.74 0,-332.74 -270.7,-603.45 -603.5,-603.45 h -768.2 c -77.5,-97.36 -149.5,-191.02 -215.4,-279.29 -58.3,-78.01 -116.8,-158.51 -174.9,-240.23 H 15177 c 619.3,0 1123,503.77 1123,1122.97 0,281.23 -104.4,550.34 -294.1,757.74"/>
      </g>
      <g transform="matrix(11.09923, 0, 0, 12.014932, -2268.427979, -2640.366699)" id="g38" style="">
        <text style="fill: rgb(51, 51, 51); font-family: Arial, sans-serif; font-size: 121px; white-space: pre;" transform="matrix(2.609066, 0, 0, -2.591409, 1905.566772, 1080.530029)">C2SEC</text>
      </g>
    </g>
  </g>
</svg>