<?xml version="1.0" encoding="UTF-8" standalone="no"?>
<!-- Creator: CorelDRAW 2018 (64-Bit) -->

<svg
   xml:space="preserve"
   width="8.26772in"
   height="11.6929in"
   version="1.1"
   style="shape-rendering:geometricPrecision; text-rendering:geometricPrecision; image-rendering:optimizeQuality; fill-rule:evenodd; clip-rule:evenodd"
   viewBox="0 0 8267.72 11692.91"
   id="svg410"
   sodipodi:docname="Unicis logo blue11.svg"
   inkscape:version="1.2.2 (b0a84865, 2022-12-01)"
   xmlns:inkscape="http://www.inkscape.org/namespaces/inkscape"
   xmlns:sodipodi="http://sodipodi.sourceforge.net/DTD/sodipodi-0.dtd"
   xmlns:xlink="http://www.w3.org/1999/xlink"
   xmlns="http://www.w3.org/2000/svg"
   xmlns:svg="http://www.w3.org/2000/svg"><sodipodi:namedview
   id="namedview412"
   pagecolor="#ffffff"
   bordercolor="#666666"
   borderopacity="1.0"
   inkscape:showpageshadow="2"
   inkscape:pageopacity="0.0"
   inkscape:pagecheckerboard="0"
   inkscape:deskcolor="#d1d1d1"
   inkscape:document-units="in"
   showgrid="false"
   inkscape:zoom="0.21024155"
   inkscape:cx="394.784"
   inkscape:cy="561.25919"
   inkscape:window-width="733"
   inkscape:window-height="480"
   inkscape:window-x="0"
   inkscape:window-y="43"
   inkscape:window-maximized="0"
   inkscape:current-layer="Layer_x0020_1" />
 <defs
   id="defs373">
  <style
   type="text/css"
   id="style336">
   <![CDATA[
    .fil0 {fill:none}
    .fil1 {fill:#0052CC}
    .fil6 {fill:#2684FF}
    .fil12 {fill:#388EFF}
    .fil9 {fill:url(#id0)}
    .fil10 {fill:url(#id1)}
    .fil5 {fill:url(#id2)}
    .fil3 {fill:url(#id3)}
    .fil8 {fill:url(#id4)}
    .fil11 {fill:url(#id5)}
    .fil7 {fill:url(#id6)}
    .fil4 {fill:url(#id7)}
    .fil2 {fill:url(#id8)}
   ]]>
  </style>
  <linearGradient
   id="id0"
   gradientUnits="userSpaceOnUse"
   x1="2798.29"
   y1="6282.24"
   x2="2798.3"
   y2="5878.68">
   <stop
   offset="0"
   style="stop-opacity:1; stop-color:#388EFF"
   id="stop338" />
   <stop
   offset="0.580392"
   style="stop-opacity:1; stop-color:#247BF4"
   id="stop340" />
   <stop
   offset="1"
   style="stop-opacity:1; stop-color:#1067E8"
   id="stop342" />
  </linearGradient>
  <linearGradient
   id="id1"
   gradientUnits="userSpaceOnUse"
   x1="2472.35"
   y1="5950.42"
   x2="2472.35"
   y2="5564.84">
   <stop
   offset="0"
   style="stop-opacity:1; stop-color:#1067E8"
   id="stop345" />
   <stop
   offset="0.380392"
   style="stop-opacity:1; stop-color:#247AF3"
   id="stop347" />
   <stop
   offset="1"
   style="stop-opacity:1; stop-color:#388EFF"
   id="stop349" />
  </linearGradient>
  <linearGradient
   id="id2"
   gradientUnits="userSpaceOnUse"
   x1="2217.34"
   y1="6234.24"
   x2="2489.76"
   y2="6388.8">
   <stop
   offset="0"
   style="stop-opacity:1; stop-color:#2684FF"
   id="stop352" />
   <stop
   offset="1"
   style="stop-opacity:1; stop-color:#1067E8"
   id="stop354" />
  </linearGradient>
  <linearGradient
   id="id3"
   gradientUnits="userSpaceOnUse"
   x1="2243.36"
   y1="5907.07"
   x2="2362.51"
   y2="5907.08">
   <stop
   offset="0"
   style="stop-opacity:1; stop-color:#0052CC"
   id="stop357" />
   <stop
   offset="1"
   style="stop-opacity:1; stop-color:#0044AB"
   id="stop359" />
  </linearGradient>
  <linearGradient
   id="id4"
   gradientUnits="userSpaceOnUse"
   xlink:href="#id1"
   x1="1974.55"
   y1="6024.69"
   x2="1974.55"
   y2="5606.83">
  </linearGradient>
  <linearGradient
   id="id5"
   gradientUnits="userSpaceOnUse"
   x1="2444.5"
   y1="5439.45"
   x2="2677.69"
   y2="5440.31">
   <stop
   offset="0"
   style="stop-opacity:1; stop-color:#1067E8"
   id="stop363" />
   <stop
   offset="0.458824"
   style="stop-opacity:1; stop-color:#247AF3"
   id="stop365" />
   <stop
   offset="1"
   style="stop-opacity:1; stop-color:#388EFF"
   id="stop367" />
  </linearGradient>
  <linearGradient
   id="id6"
   gradientUnits="userSpaceOnUse"
   xlink:href="#id2"
   x1="2278.92"
   y1="5455.76"
   x2="2378.79"
   y2="5644.36">
  </linearGradient>
  <linearGradient
   id="id7"
   gradientUnits="userSpaceOnUse"
   xlink:href="#id3"
   x1="2506.69"
   y1="6263.57"
   x2="2744.22"
   y2="6122.71">
  </linearGradient>
  <linearGradient
   id="id8"
   gradientUnits="userSpaceOnUse"
   xlink:href="#id3"
   x1="2059.61"
   y1="6151.43"
   x2="2216.39"
   y2="6228.63">
  </linearGradient>
 </defs>
 <g
   id="Layer_x0020_1"
   inkscape:label="Layer 1">
  <metadata
   id="CorelCorpID_0Corel-Layer" />
  <rect
   class="fil0"
   x="1436.79"
   y="4953.82"
   width="5394.13"
   height="1785.27"
   id="rect376" />
  <g
   id="_2582179108048">
   <path
   class="fil1"
   d="M2250.24 5355.42c-8.76,5.06 -7.04,12.48 1.02,17.13 36.22,20.91 72.45,41.83 108.67,62.74 9.8,5.66 16.08,2.16 16.08,-9.24 0,-39.27 0,-78.54 0,-117.81 0,-10.41 -3.44,-13.68 -13.57,-10.75 -13.62,3.94 -26.73,10.26 -39.28,16.77 -19.66,10.2 -38.75,21.43 -57.93,32.5 -5,2.89 -10,5.77 -15,8.65z"
   id="path378" />
   <path
   class="fil2"
   d="M2124.19 6257.95c11.28,6.52 18.14,2.81 24.33,-7.91 18.15,-31.43 36.29,-62.85 54.44,-94.28 6.55,-11.34 4.21,-18.79 -7.04,-25.28 -40.52,-23.4 -81.05,-46.8 -121.57,-70.19 -9.33,-5.39 -19.96,-6.49 -29.52,-0.97 -35.49,20.49 -70.98,40.98 -106.47,61.47 -13.27,7.67 -15.7,13.21 -3.33,23.45 9.81,8.12 20.54,15.16 31.32,21.9 17.19,10.75 34.81,20.78 52.37,30.92 35.16,20.3 70.31,40.59 105.47,60.89z"
   id="path380" />
   <path
   class="fil1"
   d="M1896.52 5723.8c0,14.36 6.66,16.89 18.63,9.99 40.46,-23.36 80.93,-46.73 121.39,-70.09 11.41,-6.59 12.01,-13.85 0.36,-20.57 -37.04,-21.38 -74.06,-42.76 -111.09,-64.15 -8.69,-5.02 -16.86,-7.4 -20.78,4.06 -4.77,13.97 -6.41,29.28 -7.31,43.94 -1.52,24.55 -1.2,49.18 -1.2,73.76 0,7.68 0,15.36 0,23.05z"
   id="path382" />
   <path
   class="fil1"
   d="M2718.22 5482.54l0 120.54c0,12.07 0.96,18.13 11.99,24.5l135.37 78.15c7,4.04 12.77,5.05 12.77,-4.97 0,-141.29 0.15,-141.01 -122.2,-211.66l-24.83 -14.33c-7.04,-4.07 -13.09,-0.09 -13.09,7.78z"
   id="path384" />
   <path
   class="fil3"
   d="M2376.01 6005.65c0,-48.01 0,-96.02 0,-144.03 0,-16.18 -4.4,-25.25 -18.58,-33.44 -37.27,-21.52 -74.54,-43.04 -111.8,-64.55 -16.38,-9.46 -20.43,-4.42 -20.43,13.17 0,46.35 0,92.7 0,139.06 0,20.2 0.76,31.79 19.6,42.67 35.64,20.57 71.28,41.16 106.92,61.73 18.52,10.69 24.28,6.31 24.28,-14.62z"
   id="path386" />
   <path
   class="fil4"
   d="M2428.73 6238.5c34.7,20.04 69.41,40.08 104.13,60.11 21.98,12.69 27.16,11.69 48.86,-0.7 33.61,-19.19 67.04,-38.72 100.52,-58.14 11.84,-6.87 13.14,-13.03 13.14,-26.11 0,-43.67 0,-87.33 0,-131 0,-11.05 -9.02,-14.21 -17.88,-9.09 -82.64,47.71 -165.27,95.43 -247.91,143.13 -12.21,7.05 -13.72,14.36 -0.85,21.8z"
   id="path388" />
   <path
   class="fil1"
   d="M2510.72 5542.35l-94.05 54.3c-9.04,5.22 -8.39,13.29 0.37,18.34 37.83,21.83 75.65,43.68 113.47,65.52 13.13,7.58 19.16,4.65 19.16,-10.79l0 -105.8c0,-12.08 -3.5,-16.23 -13.33,-21.91 -2.49,-1.44 -5.13,-3.04 -7.91,-3.84 -6.2,-1.81 -12.42,1.13 -17.7,4.19z"
   id="path390" />
   <path
   class="fil5"
   d="M2520.73 6332.98c8.47,-4.89 5.24,-11.95 -1.91,-16.08 -90.99,-52.53 -181.97,-105.07 -272.96,-157.59 -8.67,-5 -16.77,-3.13 -21.84,5.66 -18.85,32.64 -37.67,65.28 -56.53,97.92 -6.2,10.73 -4.16,17.67 6.48,23.81 30.42,17.56 60.84,35.13 91.26,52.69 122.35,70.65 122.04,70.64 244.4,0 3.7,-2.14 7.4,-4.27 11.1,-6.41z"
   id="path392" />
   <path
   class="fil6"
   d="M2718.22 5665.19c0,47.17 0,94.33 0,141.5 0,12.2 7.54,17.34 18.42,11.06 40.24,-23.23 80.48,-46.47 120.72,-69.7 8.67,-5 8.26,-15.92 -0.23,-20.82 -40.84,-23.57 -81.67,-47.16 -122.5,-70.73 -7.85,-4.53 -16.41,-0.96 -16.41,8.69z"
   id="path394" />
   <path
   class="fil7"
   d="M2230.46 5386.93c-13.06,-7.54 -22.39,-7.16 -35.34,0.31 -36.09,20.84 -72.18,41.69 -108.28,62.52 -7.86,4.54 -10.1,16.22 -1.45,21.21 39.91,23.05 79.82,46.09 119.73,69.13 18.43,10.64 20.01,22.08 20.07,41.99 0.13,40.6 0,81.2 0,121.79 0,16.59 1.97,22.72 16.7,31.22 39.28,22.67 78.55,45.35 117.82,68.02 14.07,8.13 16.29,-1.63 16.29,-14.02 0,-99.82 0,-199.65 0,-299.48 0,-10.28 -3.65,-20.78 -12.93,-26.13 -44.21,-25.52 -88.41,-51.04 -132.61,-76.57z"
   id="path396" />
   <path
   class="fil8"
   d="M1896.52 5791.23c0,17.28 0,34.56 0,51.84 0,47.44 0,94.88 0,142.32 0,21.68 -0.16,43.38 0.76,65.05 0.58,13.74 1.58,27.76 4.57,41.2 4.43,19.89 10.88,17.55 26.53,8.51 38.34,-22.13 76.68,-44.27 115.02,-66.41 9.75,-5.63 13.24,-15.76 13.24,-26.55 0,-103.09 0,-206.18 0,-309.27 0,-9.94 -7.85,-14.92 -16.65,-9.84 -43.13,24.9 -86.26,49.81 -129.39,74.7 -10.69,6.17 -14.08,16.64 -14.08,28.44z"
   id="path398" />
   <path
   class="fil9"
   d="M2878.35 5783.12c0,-14.26 -4.15,-18.4 -17.4,-10.75l-126.13 72.82c-15.78,9.11 -16.6,14.5 -16.6,32.06l0 320.85c0,13.15 6.92,16.86 18.26,10.32l19.67 -11.35c122.36,-70.64 122.2,-70.37 122.2,-211.66 0,-47.44 0,-94.88 0,-142.32l0 -59.96z"
   id="path400" />
   <path
   class="fil10"
   d="M2420.24 6021.94c38.31,-22.12 76.98,-43.62 114.92,-66.39 13.14,-7.89 14.5,-16.28 14.5,-30.78 0,-62.96 0,-125.91 0,-188.87 0,-13.24 -2.45,-19.35 -14.13,-26.09 -40,-23.09 -80,-46.19 -120,-69.28 -9.75,-5.63 -16.68,-1.77 -16.68,9.52 0,120.67 0,241.35 0,362.02 0,16.37 9.07,16.98 21.39,9.87z"
   id="path402" />
   <path
   class="fil11"
   d="M2509.63 5346.77c-19.48,-11.24 -38.9,-22.62 -58.91,-32.9 -12.18,-6.26 -24.82,-12.27 -37.96,-16.24 -9.01,-2.72 -13.9,-0.42 -13.9,9.61 0,84.39 0,168.77 0,253.16 0,13.28 9.07,14.92 19.26,9.04 29.84,-17.23 59.83,-34.21 89.78,-51.26 4.87,-2.77 10.02,-4.41 15.66,-4.3 12.26,0.24 26.55,9.71 36.94,15.71l116.72 67.33c13.66,7.88 18.15,0.15 18.15,-13.45l0 -114.22c0,-8.72 -2.42,-16.64 -10.33,-21.23 -18.68,-10.83 -37.41,-21.6 -56.13,-32.38l-119.28 -68.86z"
   id="path404" />
   <path
   class="fil12"
   d="M3813.02 5640l-104.38 0 0 275.04c0,31.31 -18.19,46.14 -48.7,46.14l-179.43 0c-30.31,0 -47.42,-15.43 -47.42,-46.14l0 -275.04 -104.38 0 0 287.81c0,20.06 1.86,41.26 8.02,60.45 4.96,15.45 12.98,29.18 24.89,40.26 12.53,11.65 28.12,18.99 44.49,23.54 21.73,6.04 45.54,7.76 68.02,7.76l193.48 0c36.61,0 84.08,-4.98 112.17,-31.29 26.94,-25.23 33.24,-65.55 33.24,-100.72l0 -287.81zm711.05 0l-101.19 0 0 273.12c0,9.57 -4.44,17.41 -14.85,17.41 -2.67,0 -5.32,-0.4 -7.82,-1.33 -3.1,-1.16 -5.61,-3.44 -7.57,-5.9l-210.65 -252.14c-10.91,-12.61 -24.16,-24.72 -39.48,-31.69 -15.2,-6.91 -32.72,-9.05 -49.27,-9.05 -13.02,0 -26.05,1.52 -38.56,5.19 -11.06,3.24 -21.07,8.53 -29.62,16.27 -8.81,7.97 -14.97,17.98 -19.2,29.02 -5.34,13.93 -6.95,29.68 -6.95,44.5l0 334.42 101.83 0 0 -286.53c0,-4.92 1.39,-9.59 4.93,-13.12 3.23,-3.22 7.28,-4.93 11.85,-4.93 5.94,0 10.83,3.46 14.69,7.79l236.9 273.93c9.31,10.76 20.43,19.09 33.72,24.21 14.59,5.61 30.52,7.59 46.09,7.59 9.82,0 19.39,-1.66 28.6,-5.06 9.02,-3.33 16.93,-8.43 23.73,-15.24 7.5,-7.5 12.78,-16.81 16.54,-26.66 4.78,-12.5 6.31,-26.41 6.31,-39.72l0 -342.08zm294.72 0l-104.38 0 0 419.81 104.38 0 0 -419.81zm624.21 419.81l0 -101.83 -220.13 0c-18.16,0 -37.19,-2.26 -54.03,-9.41 -14.11,-5.98 -26.79,-14.39 -37.09,-25.63 -9.11,-9.56 -16.1,-20.59 -21,-32.85 -5.06,-12.64 -7.45,-25.94 -7.45,-39.55 0,-15.05 2.97,-29.57 9.14,-43.3 5.95,-13.22 14.13,-25.03 24.61,-35.05l0.11 -0.1c10.27,-9.33 22.13,-16.4 34.99,-21.55 15.74,-6.3 33.89,-8.08 50.72,-8.08l220.13 0 0 -102.47 -220.13 0c-30.2,0 -61.17,3.78 -89.52,14.61 -24.53,9.37 -46.81,22.77 -66.09,40.64 -21.18,19.63 -37.79,42.66 -49.72,68.98 -12.29,27.12 -17.99,55.91 -17.99,85.68 0,26.67 4.42,52.8 14.27,77.63 9.38,23.66 22.53,45.19 39.73,63.95 19.89,21.7 43.91,38.14 70.81,49.98 30.83,13.58 65.02,18.33 98.5,18.33l220.13 0zm285.15 -419.81l-104.38 0 0 419.81 104.38 0 0 -419.81zm629.95 102.47l0 -102.47 -310.8 0c-21.78,0 -47,1.9 -67.39,10.11 -15.49,6.24 -29.73,14.96 -41.37,27.04 -11.02,11.43 -19.68,24.51 -25.96,39.1 -6.41,14.89 -9.42,30.61 -9.42,46.83 0,16.26 2.77,32.17 9.11,47.19 6.12,14.48 14.71,27.42 25.63,38.74 11.69,12.12 26.08,20.83 41.67,27.02 20.58,8.18 45.78,10.12 67.74,10.12l175.59 0c6.8,0 14.86,0.37 21.35,2.54 5.31,1.77 9.92,4.73 13.63,8.91 7.3,7.39 10.53,16.69 10.53,27.04 0,8.84 -2.67,16.91 -8.45,23.64 -3.8,4.44 -8.74,7.52 -14.15,9.64 -6.93,2.71 -15.53,3.28 -22.91,3.28l-308.24 0 0 98.63 328.67 0c21,0 43.09,-2.78 62.35,-11.59 16.19,-7.41 30.69,-17.54 42.37,-31.06 9.57,-11.07 16.89,-23.68 22.28,-37.26 5.49,-13.83 8.2,-28.26 8.2,-43.15 0,-16.02 -3.08,-31.47 -9.41,-46.19 -6.28,-14.59 -14.94,-27.67 -25.96,-39.1 -11.47,-11.9 -25.28,-20.71 -40.48,-27.06 -18.45,-7.71 -39.49,-10.08 -59.34,-10.08l-189.64 0c-5.54,0 -11.97,-0.27 -17.31,-1.84 -4.15,-1.22 -8.01,-3.14 -11.35,-5.9 -8.58,-7.09 -13,-16.41 -13,-27.55 0,-10.22 3.41,-19.27 10.67,-26.53 3.39,-3.39 7.56,-5.78 12.04,-7.43 5.81,-2.14 12.83,-2.6 18.97,-2.6l304.41 0z"
   id="path406" />
  </g>
 </g>
</svg>
