<svg version="1.1" viewBox="0.0 0.0 258.62467191601047 100.0" fill="none" stroke="none" stroke-linecap="square" stroke-miterlimit="10" xmlns:xlink="http://www.w3.org/1999/xlink" xmlns="http://www.w3.org/2000/svg"><clipPath id="p.0"><path d="m0 0l258.62466 0l0 100.0l-258.62466 0l0 -100.0z" clip-rule="nonzero"/></clipPath><g clip-path="url(#p.0)"><path fill="#000000" fill-opacity="0.0" d="m0 0l258.62466 0l0 100.0l-258.62466 0z" fill-rule="evenodd"/><path fill="#000000" fill-opacity="0.0" d="m62.191357 -7.0125585l243.37007 0l0 95.338585l-243.37007 0z" fill-rule="evenodd"/><path fill="#a1a1a1" d="m79.894485 62.147446q-1.0 0 -1.71875 -0.71875q-0.71875 -0.71875 -0.71875 -1.71875l0 -44.046875q0 -1.078125 0.71875 -1.765625q0.71875 -0.6875 1.71875 -0.6875q1.515625 0 2.203125 1.25l21.109375 41.984375l-2.125 0l20.734375 -41.984375q0.75 -1.25 2.1875 -1.25q1.015625 0 1.703125 0.6875q0.6875 0.6875 0.6875 1.765625l0 44.046875q0 1.0 -0.6875 1.71875q-0.6875 0.71875 -1.703125 0.71875q-1.0625 0 -1.78125 -0.71875q-0.71875 -0.71875 -0.71875 -1.71875l0 -37.71875l1.0625 0.0625l-18.484375 37.78125q-0.6875 1.1875 -2.125 1.1875q-1.5625 0 -2.25 -1.5l-18.609375 -37.21875l1.25 -0.3125l0 37.71875q0 1.0 -0.71875 1.71875q-0.71875 0.71875 -1.734375 0.71875zm75.26257 0q-1.578125 0 -2.265625 -1.5625l-18.609375 -43.546875q-0.6875 -1.75 -0.09375 -2.78125q0.59375 -1.046875 2.109375 -1.046875q1.5625 0 2.25 1.5625l17.296875 41.359375l-1.390625 0l17.234375 -41.234375q0.375 -0.9375 0.9375 -1.3125q0.5625 -0.375 1.515625 -0.375q1.4375 0 1.9375 1.109375q0.5 1.09375 -0.0625 2.46875l-18.671875 43.796875q-0.375 0.875 -0.9375 1.21875q-0.5625 0.34375 -1.25 0.34375zm43.65869 0.625q-4.0 0 -7.421875 -1.15625q-3.40625 -1.15625 -5.921875 -3.28125q-2.5 -2.140625 -3.8125 -4.953125q-0.5 -1.015625 -0.03125 -1.859375q0.46875 -0.84375 1.59375 -1.15625q0.875 -0.25 1.71875 0.1875q0.84375 0.4375 1.28125 1.3125q0.953125 1.828125 2.765625 3.265625q1.8125 1.4375 4.3125 2.21875q2.515625 0.78125 5.515625 0.78125q3.328125 0 5.890625 -1.09375q2.578125 -1.09375 4.046875 -3.1875q1.46875 -2.109375 1.46875 -5.109375q0 -3.828125 -2.828125 -6.578125q-2.8125 -2.765625 -8.828125 -3.515625q-7.328125 -0.875 -11.46875 -4.53125q-4.125 -3.671875 -4.125 -9.0q0 -3.828125 2.03125 -6.640625q2.046875 -2.8125 5.609375 -4.34375q3.578125 -1.546875 8.203125 -1.546875q3.453125 0 6.265625 1.09375q2.828125 1.09375 4.921875 2.890625q2.109375 1.78125 3.421875 3.90625q0.625 1.015625 0.40625 1.953125q-0.21875 0.9375 -1.09375 1.4375q-0.953125 0.4375 -1.921875 0.125q-0.96875 -0.3125 -1.46875 -1.1875q-0.9375 -1.453125 -2.359375 -2.734375q-1.40625 -1.28125 -3.40625 -2.03125q-2.0 -0.75 -4.828125 -0.8125q-4.9375 0 -7.953125 2.109375q-3.0 2.09375 -3.0 6.09375q0 2.125 1.125 3.921875q1.125 1.78125 3.71875 3.0625q2.609375 1.28125 7.0 1.921875q7.828125 1.125 11.609375 4.796875q3.796875 3.65625 3.796875 9.546875q0 3.375 -1.21875 6.015625q-1.21875 2.625 -3.453125 4.421875q-2.21875 1.78125 -5.203125 2.71875q-2.96875 0.9375 -6.359375 0.9375zm28.884628 -0.625q-1.0625 0 -1.75 -0.6875q-0.6875 -0.6875 -0.6875 -1.75l0 -44.046875q0 -1.078125 0.6875 -1.765625q0.6875 -0.6875 1.75 -0.6875l12.53125 0q4.640625 0 8.203125 2.046875q3.578125 2.03125 5.578125 5.609375q2.015625 3.5625 2.015625 8.265625q0 4.5625 -2.015625 8.109375q-2.0 3.546875 -5.578125 5.578125q-3.5625 2.03125 -8.203125 2.03125l-10.078125 0l0 14.859375q0 1.0625 -0.6875 1.75q-0.6875 0.6875 -1.765625 0.6875zm2.453125 -22.0l10.078125 0q3.203125 0 5.703125 -1.40625q2.515625 -1.40625 3.921875 -3.90625q1.40625 -2.515625 1.40625 -5.703125q0 -3.328125 -1.40625 -5.828125q-1.40625 -2.515625 -3.921875 -3.953125q-2.5 -1.4375 -5.703125 -1.4375l-10.078125 0l0 22.234375z" fill-rule="nonzero"/><path fill="#a64d79" d="m32.818813 9.388605l0 0c16.594635 0 30.047245 13.45261 30.047245 30.047243q0 15.023624 0 30.047245q-15.023624 0 -30.047245 0l0 0c-16.594635 0 -30.047243 -13.45261 -30.047243 -30.047245l0 0c0 -16.594633 13.452609 -30.047243 30.047243 -30.047243z" fill-rule="evenodd"/><path stroke="#a1a1a1" stroke-width="4.0" stroke-linejoin="round" stroke-linecap="butt" d="m32.818813 9.388605l0 0c16.594635 0 30.047245 13.45261 30.047245 30.047243q0 15.023624 0 30.047245q-15.023624 0 -30.047245 0l0 0c-16.594635 0 -30.047243 -13.45261 -30.047243 -30.047245l0 0c0 -16.594633 13.452609 -30.047243 30.047243 -30.047243z" fill-rule="evenodd"/><path fill="#000000" fill-opacity="0.0" d="m62.86606 69.48309l191.46457 -0.81889343" fill-rule="evenodd"/><path stroke="#a1a1a1" stroke-width="4.0" stroke-linejoin="round" stroke-linecap="butt" d="m62.86606 69.48309l191.46457 -0.81889343" fill-rule="evenodd"/><path fill="#000000" fill-opacity="0.0" d="m252.89224 70.62616l0 -18.80315" fill-rule="evenodd"/><path stroke="#a1a1a1" stroke-width="4.0" stroke-linejoin="round" stroke-linecap="butt" d="m252.89224 70.62616l0 -18.80315" fill-rule="evenodd"/><path fill="#f3f3f3" d="m25.086523 39.435696l0 0c0 -4.392185 3.4618607 -7.952757 7.7322826 -7.952757l0 0c2.0507317 0 4.0174675 0.8378773 5.467552 2.3293095c1.4500847 1.4914322 2.2647324 3.514244 2.2647324 5.6234474l0 0c0 4.392185 -3.4618607 7.952755 -7.7322845 7.952755l0 0c-4.270422 0 -7.7322826 -3.5605698 -7.7322826 -7.952755z" fill-rule="evenodd"/><path stroke="#a1a1a1" stroke-width="4.0" stroke-linejoin="round" stroke-linecap="butt" d="m25.086523 39.435696l0 0c0 -4.392185 3.4618607 -7.952757 7.7322826 -7.952757l0 0c2.0507317 0 4.0174675 0.8378773 5.467552 2.3293095c1.4500847 1.4914322 2.2647324 3.514244 2.2647324 5.6234474l0 0c0 4.392185 -3.4618607 7.952755 -7.7322845 7.952755l0 0c-4.270422 0 -7.7322826 -3.5605698 -7.7322826 -7.952755z" fill-rule="evenodd"/><path fill="#000000" fill-opacity="0.0" d="m66.73614 73.02115l0 12.503937" fill-rule="evenodd"/><path stroke="#a1a1a1" stroke-width="2.0" stroke-linejoin="round" stroke-linecap="butt" d="m66.73614 73.02115l0 12.503937" fill-rule="evenodd"/><path fill="#000000" fill-opacity="0.0" d="m73.188896 73.02115l0.03149414 18.48819" fill-rule="evenodd"/><path stroke="#a1a1a1" stroke-width="2.0" stroke-linejoin="round" stroke-linecap="butt" d="m73.188896 73.02115l0.03149414 18.48819" fill-rule="evenodd"/><path fill="#000000" fill-opacity="0.0" d="m79.73614 73.02115l0 12.503937" fill-rule="evenodd"/><path stroke="#a1a1a1" stroke-width="2.0" stroke-linejoin="round" stroke-linecap="butt" d="m79.73614 73.02115l0 12.503937" fill-rule="evenodd"/><path fill="#000000" fill-opacity="0.0" d="m86.73614 73.02115l0 12.503937" fill-rule="evenodd"/><path stroke="#a1a1a1" stroke-width="2.0" stroke-linejoin="round" stroke-linecap="butt" d="m86.73614 73.02115l0 12.503937" fill-rule="evenodd"/><path fill="#000000" fill-opacity="0.0" d="m93.188896 73.02115l0.03149414 18.48819" fill-rule="evenodd"/><path stroke="#a1a1a1" stroke-width="2.0" stroke-linejoin="round" stroke-linecap="butt" d="m93.188896 73.02115l0.03149414 18.48819" fill-rule="evenodd"/><path fill="#000000" fill-opacity="0.0" d="m99.73614 73.02115l0 12.503937" fill-rule="evenodd"/><path stroke="#a1a1a1" stroke-width="2.0" stroke-linejoin="round" stroke-linecap="butt" d="m99.73614 73.02115l0 12.503937" fill-rule="evenodd"/><path fill="#000000" fill-opacity="0.0" d="m106.73614 73.02115l0 12.503937" fill-rule="evenodd"/><path stroke="#a1a1a1" stroke-width="2.0" stroke-linejoin="round" stroke-linecap="butt" d="m106.73614 73.02115l0 12.503937" fill-rule="evenodd"/><path fill="#000000" fill-opacity="0.0" d="m113.188896 73.02115l0.03149414 18.48819" fill-rule="evenodd"/><path stroke="#a1a1a1" stroke-width="2.0" stroke-linejoin="round" stroke-linecap="butt" d="m113.188896 73.02115l0.03149414 18.48819" fill-rule="evenodd"/><path fill="#000000" fill-opacity="0.0" d="m119.73614 73.02115l0 12.503937" fill-rule="evenodd"/><path stroke="#a1a1a1" stroke-width="2.0" stroke-linejoin="round" stroke-linecap="butt" d="m119.73614 73.02115l0 12.503937" fill-rule="evenodd"/><path fill="#000000" fill-opacity="0.0" d="m126.73614 73.02115l0 12.503937" fill-rule="evenodd"/><path stroke="#a1a1a1" stroke-width="2.0" stroke-linejoin="round" stroke-linecap="butt" d="m126.73614 73.02115l0 12.503937" fill-rule="evenodd"/><path fill="#000000" fill-opacity="0.0" d="m133.18889 73.02115l0.03149414 18.48819" fill-rule="evenodd"/><path stroke="#a1a1a1" stroke-width="2.0" stroke-linejoin="round" stroke-linecap="butt" d="m133.18889 73.02115l0.03149414 18.48819" fill-rule="evenodd"/><path fill="#000000" fill-opacity="0.0" d="m139.73613 73.02115l0 12.503937" fill-rule="evenodd"/><path stroke="#a1a1a1" stroke-width="2.0" stroke-linejoin="round" stroke-linecap="butt" d="m139.73613 73.02115l0 12.503937" fill-rule="evenodd"/><path fill="#000000" fill-opacity="0.0" d="m146.73613 73.02115l0 12.503937" fill-rule="evenodd"/><path stroke="#a1a1a1" stroke-width="2.0" stroke-linejoin="round" stroke-linecap="butt" d="m146.73613 73.02115l0 12.503937" fill-rule="evenodd"/><path fill="#000000" fill-opacity="0.0" d="m153.18889 73.02115l0.03149414 18.48819" fill-rule="evenodd"/><path stroke="#a1a1a1" stroke-width="2.0" stroke-linejoin="round" stroke-linecap="butt" d="m153.18889 73.02115l0.03149414 18.48819" fill-rule="evenodd"/><path fill="#000000" fill-opacity="0.0" d="m159.73613 73.02115l0 12.503937" fill-rule="evenodd"/><path stroke="#a1a1a1" stroke-width="2.0" stroke-linejoin="round" stroke-linecap="butt" d="m159.73613 73.02115l0 12.503937" fill-rule="evenodd"/><path fill="#000000" fill-opacity="0.0" d="m166.73613 73.02115l0 12.503937" fill-rule="evenodd"/><path stroke="#a1a1a1" stroke-width="2.0" stroke-linejoin="round" stroke-linecap="butt" d="m166.73613 73.02115l0 12.503937" fill-rule="evenodd"/><path fill="#000000" fill-opacity="0.0" d="m173.18889 73.02115l0.03149414 18.48819" fill-rule="evenodd"/><path stroke="#a1a1a1" stroke-width="2.0" stroke-linejoin="round" stroke-linecap="butt" d="m173.18889 73.02115l0.03149414 18.48819" fill-rule="evenodd"/><path fill="#000000" fill-opacity="0.0" d="m179.73613 73.02115l0 12.503937" fill-rule="evenodd"/><path stroke="#a1a1a1" stroke-width="2.0" stroke-linejoin="round" stroke-linecap="butt" d="m179.73613 73.02115l0 12.503937" fill-rule="evenodd"/><path fill="#000000" fill-opacity="0.0" d="m186.73613 73.02115l0 12.503937" fill-rule="evenodd"/><path stroke="#a1a1a1" stroke-width="2.0" stroke-linejoin="round" stroke-linecap="butt" d="m186.73613 73.02115l0 12.503937" fill-rule="evenodd"/><path fill="#000000" fill-opacity="0.0" d="m193.18889 73.02115l0.03149414 18.48819" fill-rule="evenodd"/><path stroke="#a1a1a1" stroke-width="2.0" stroke-linejoin="round" stroke-linecap="butt" d="m193.18889 73.02115l0.03149414 18.48819" fill-rule="evenodd"/><path fill="#000000" fill-opacity="0.0" d="m199.73613 73.02115l0 12.503937" fill-rule="evenodd"/><path stroke="#a1a1a1" stroke-width="2.0" stroke-linejoin="round" stroke-linecap="butt" d="m199.73613 73.02115l0 12.503937" fill-rule="evenodd"/><path fill="#000000" fill-opacity="0.0" d="m206.73613 73.02115l0 12.503937" fill-rule="evenodd"/><path stroke="#a1a1a1" stroke-width="2.0" stroke-linejoin="round" stroke-linecap="butt" d="m206.73613 73.02115l0 12.503937" fill-rule="evenodd"/><path fill="#000000" fill-opacity="0.0" d="m213.18889 73.02115l0.03149414 18.48819" fill-rule="evenodd"/><path stroke="#a1a1a1" stroke-width="2.0" stroke-linejoin="round" stroke-linecap="butt" d="m213.18889 73.02115l0.03149414 18.48819" fill-rule="evenodd"/><path fill="#000000" fill-opacity="0.0" d="m219.73613 73.02115l0 12.503937" fill-rule="evenodd"/><path stroke="#a1a1a1" stroke-width="2.0" stroke-linejoin="round" stroke-linecap="butt" d="m219.73613 73.02115l0 12.503937" fill-rule="evenodd"/><path fill="#000000" fill-opacity="0.0" d="m226.73613 73.02115l0 12.503937" fill-rule="evenodd"/><path stroke="#a1a1a1" stroke-width="2.0" stroke-linejoin="round" stroke-linecap="butt" d="m226.73613 73.02115l0 12.503937" fill-rule="evenodd"/><path fill="#000000" fill-opacity="0.0" d="m233.18889 73.02115l0.03149414 18.48819" fill-rule="evenodd"/><path stroke="#a1a1a1" stroke-width="2.0" stroke-linejoin="round" stroke-linecap="butt" d="m233.18889 73.02115l0.03149414 18.48819" fill-rule="evenodd"/><path fill="#000000" fill-opacity="0.0" d="m239.73613 73.02115l0 12.503937" fill-rule="evenodd"/><path stroke="#a1a1a1" stroke-width="2.0" stroke-linejoin="round" stroke-linecap="butt" d="m239.73613 73.02115l0 12.503937" fill-rule="evenodd"/><path fill="#000000" fill-opacity="0.0" d="m246.73613 73.02115l0 12.503937" fill-rule="evenodd"/><path stroke="#a1a1a1" stroke-width="2.0" stroke-linejoin="round" stroke-linecap="butt" d="m246.73613 73.02115l0 12.503937" fill-rule="evenodd"/><path fill="#000000" fill-opacity="0.0" d="m253.18889 73.02115l0.03149414 18.48819" fill-rule="evenodd"/><path stroke="#a1a1a1" stroke-width="2.0" stroke-linejoin="round" stroke-linecap="butt" d="m253.18889 73.02115l0.03149414 18.48819" fill-rule="evenodd"/><path fill="#000000" fill-opacity="0.0" d="m63.511894 23.604822l0 0c2.4514465 4.4260597 4.042572 10.921759 3.9251175 16.024103l0 0l0 0c0.11745453 -5.1023445 -1.473671 -11.598043 -3.9251175 -16.024103z" fill-rule="evenodd"/><path stroke="#a1a1a1" stroke-width="3.0" stroke-linejoin="round" stroke-linecap="butt" d="m63.511894 23.604822l0 0c2.4514465 4.4260597 4.042572 10.921759 3.9251175 16.024103l0 0l0 0c0.11745453 -5.1023445 -1.473671 -11.598043 -3.9251175 -16.024103z" fill-rule="evenodd"/></g></svg>