<?xml version="1.0" standalone="no"?>
<!DOCTYPE svg PUBLIC "-//W3C//DTD SVG 20010904//EN"
 "http://www.w3.org/TR/2001/REC-SVG-20010904/DTD/svg10.dtd">
<svg version="1.0" xmlns="http://www.w3.org/2000/svg"
 width="700.000000pt" height="700.000000pt" viewBox="0 0 700.000000 700.000000"
 preserveAspectRatio="xMidYMid meet">
<metadata>
Created by potrace 1.11, written by Peter Selinger 2001-2013
</metadata>
<g transform="translate(0.000000,700.000000) scale(0.100000,-0.100000)"
fill="#000000" stroke="none">
<path d="M2545 5794 c-60 -7 -120 -15 -131 -18 -12 -2 -37 -7 -55 -10 -95 -15
-348 -91 -408 -123 -15 -7 -29 -13 -34 -13 -4 0 -56 -24 -115 -53 -230 -115
-421 -253 -602 -436 -218 -221 -357 -433 -495 -756 -44 -105 -106 -327 -121
-440 -3 -22 -7 -46 -10 -54 -10 -30 -19 -192 -19 -336 0 -165 10 -281 30 -385
3 -14 8 -38 11 -55 50 -281 219 -653 418 -914 105 -139 271 -305 411 -412 340
-260 738 -416 1165 -457 70 -6 2298 -8 3383 -2 l477 2 0 659 0 659 -140 0
-140 0 0 -518 0 -519 -367 -2 c-203 -2 -457 -4 -565 -5 -109 -2 -198 0 -199 3
0 3 -2 492 -3 1086 -2 594 -6 1089 -8 1100 -3 11 -9 45 -13 75 -39 312 -147
604 -338 915 -85 139 -281 362 -428 487 -180 152 -444 312 -624 377 -33 12
-69 26 -80 31 -30 14 -228 69 -288 80 -29 6 -63 12 -77 15 -24 5 -50 8 -140
21 -86 12 -385 10 -495 -2z"/>
<path d="M4901 4769 c-32 -12 -58 -44 -66 -80 -5 -23 5 -55 48 -147 75 -159
143 -359 171 -502 2 -14 9 -47 15 -75 23 -120 37 -267 40 -427 1 -37 48 -86
87 -91 43 -6 90 18 107 56 15 32 16 179 3 290 -3 26 -9 68 -12 95 -3 26 -9 65
-14 87 -5 22 -12 56 -15 75 -28 170 -118 436 -205 610 -51 101 -97 132 -159
109z"/>
</g>
</svg>
