<?xml version="1.0" encoding="utf-8"?>
<!-- Generator: Adobe Illustrator 19.0.0, SVG Export Plug-In . SVG Version: 6.00 Build 0)  -->
<svg version="1.1" id="GoogleLogo_x5F_FullColor_x5F_rgb_21_"
	 xmlns="http://www.w3.org/2000/svg" xmlns:xlink="http://www.w3.org/1999/xlink" x="0px" y="0px" width="298px" height="97.24px"
	 viewBox="0 0 298 97.24" enable-background="new 0 0 298 97.24" xml:space="preserve">
<g id="_x32_98x98px">
	<path fill="#4285F4" d="M38.27,75.44C17.48,75.44,0,58.51,0,37.72S17.48,0,38.27,0c11.5,0,19.69,4.51,25.85,10.4l-7.27,7.27
		c-4.42-4.14-10.4-7.36-18.58-7.36c-15.18,0-27.05,12.24-27.05,27.42c0,15.18,11.87,27.41,27.05,27.41c9.84,0,15.46-3.96,19.04-7.54
		c2.94-2.94,4.88-7.18,5.61-12.97H38v-10.3h34.95c0.37,1.84,0.55,4.05,0.55,6.44c0,7.73-2.12,17.3-8.92,24.1
		C57.96,71.76,49.49,75.44,38.27,75.44z"/>
	<path fill="#E94235" d="M125.85,51.15c0,13.98-10.93,24.29-24.35,24.29s-24.35-10.3-24.35-24.29c0-14.08,10.93-24.29,24.35-24.29
		S125.85,37.07,125.85,51.15z M115.19,51.15c0-8.74-6.34-14.72-13.69-14.72c-7.35,0-13.69,5.98-13.69,14.72
		c0,8.65,6.34,14.72,13.69,14.72C108.85,65.87,115.19,59.8,115.19,51.15z"/>
	<path fill="#FABB05" d="M178.85,51.15c0,13.98-10.93,24.29-24.35,24.29s-24.35-10.3-24.35-24.29c0-14.08,10.93-24.29,24.35-24.29
		S178.85,37.07,178.85,51.15z M168.19,51.15c0-8.74-6.34-14.72-13.69-14.72s-13.69,5.98-13.69,14.72c0,8.65,6.34,14.72,13.69,14.72
		S168.19,59.8,168.19,51.15z"/>
	<path fill="#4285F4" d="M229.55,28.34v43.61c0,17.94-10.58,25.3-23.09,25.3c-11.78,0-18.86-7.91-21.53-14.35l9.29-3.86
		c1.66,3.96,5.7,8.65,12.24,8.65c8,0,12.97-4.97,12.97-14.26v-3.5h-0.37c-2.39,2.94-6.99,5.52-12.79,5.52
		c-12.14,0-23.28-10.58-23.28-24.19c0-13.71,11.13-24.38,23.28-24.38c5.79,0,10.4,2.58,12.79,5.43h0.37v-3.96H229.55z M220.17,51.24
		c0-8.56-5.7-14.81-12.97-14.81c-7.36,0-13.52,6.26-13.52,14.81c0,8.46,6.16,14.63,13.52,14.63
		C214.46,65.87,220.17,59.71,220.17,51.24z"/>
	<path fill="#34A853" d="M247.9,2.58v71.39h-10.67V2.58H247.9z"/>
	<path fill="#E94235" d="M289.26,59.15l8.28,5.52c-2.67,3.96-9.11,10.76-20.24,10.76c-13.8,0-24.1-10.67-24.1-24.29
		c0-14.44,10.4-24.29,22.91-24.29c12.6,0,18.77,10.03,20.79,15.46l1.1,2.76l-32.47,13.43c2.48,4.88,6.35,7.36,11.78,7.36
		C282.73,65.87,286.5,63.2,289.26,59.15z M263.78,50.41l21.71-9.02c-1.2-3.04-4.78-5.15-9.02-5.15
		C271.05,36.25,263.5,41.03,263.78,50.41z"/>
</g>
</svg>
